<?xml version="1.0" encoding="utf-8"?>
<!-- Generator: Adobe Illustrator 25.0.0, SVG Export Plug-In . SVG Version: 6.00 Build 0)  -->
<svg version="1.1" id="Layer_1" xmlns="http://www.w3.org/2000/svg" xmlns:xlink="http://www.w3.org/1999/xlink" x="0px" y="0px"
	 viewBox="0 0 300 300" style="enable-background:new 0 0 300 300;" xml:space="preserve">
<style type="text/css">
	.st0{fill:#3F3F41;}
	.st1{fill:#3AB54A;}
</style>
<g>
	<path class="st0" d="M241,113.6V263c0,9.7-7.9,17.6-17.6,17.6H48.9c-9.7,0-17.6-7.9-17.6-17.6V88.5c0-9.7,7.9-17.6,17.6-17.6h157
		l15.8-19.4H48.9c-20.4,0-37,16.6-37,37V263c0,20.4,16.6,37,37,37h174.5c20.4,0,37-16.6,37-37V88.5c0-1.5-0.1-3-0.3-4.5L241,113.6z"
		/>
	<path class="st1" d="M128.8,249.7c-1.2,0-2.4-0.1-3.6-0.3c-10.9-1.7-16.7-12.1-19.1-18.1c-12.8-31.2-34.4-53.5-55.6-73.6
		c-7.6-7.2-12.4-19.4-6-30.3c4.2-7.1,11.7-11.4,20-11.4c5.3,0,10.3,1.8,14.4,5.1c4.7,3.8,9.3,7.7,13.7,11.6
		c13.3,12,24.3,23,33.7,33.6l7.6,8.5L272.4,4.4C274.7,1.6,277,0,279,0c2.5,0,5.3,2.5,7,6.2c3.4,7.3,2.7,15.8-1.6,22.6L148.1,239.2
		l-0.1,0.1C144.2,245.7,136.8,249.7,128.8,249.7z"/>
</g>
</svg>
