<?xml version="1.0" encoding="utf-8"?>
<!-- Generator: Adobe Illustrator 25.0.0, SVG Export Plug-In . SVG Version: 6.00 Build 0)  -->
<svg version="1.1" id="Layer_1" xmlns="http://www.w3.org/2000/svg" xmlns:xlink="http://www.w3.org/1999/xlink" x="0px" y="0px"
	 viewBox="0 0 300 300" style="enable-background:new 0 0 300 300;" xml:space="preserve">
<style type="text/css">
	.st0{fill:#C1272D;}
</style>
<g>
	<g>
		<path class="st0" d="M265.8,284.4H34.2c-12.4,0-23.4-6.4-29.6-17.1c-6.2-10.7-6.2-23.5,0-34.2L120.4,32.7
			c6.2-10.7,17.2-17.1,29.6-17.1c0,0,0,0,0,0c12.4,0,23.4,6.4,29.6,17.1l115.8,200.5c6.2,10.7,6.2,23.5,0,34.2
			C289.2,278,278.1,284.4,265.8,284.4z M135.7,41.5L20,242c-3,5.2-3,11.3,0,16.5c3,5.2,8.3,8.2,14.3,8.2h231.5
			c5.9,0,11.3-3.1,14.2-8.2c3-5.2,3-11.3,0-16.5L164.3,41.5c-3-5.2-8.3-8.2-14.3-8.2C144,33.3,138.7,36.4,135.7,41.5L135.7,41.5z"/>
	</g>
	<g>
		<path class="st0" d="M150.1,88.1L150.1,88.1c12.8,0,22.8,11.2,21.2,23.9l-9.4,78.6c-0.7,6-5.8,10.6-11.9,10.6l0,0
			c-6.1,0-11.2-4.5-11.9-10.6l-9.3-78.6C127.3,99.3,137.3,88.1,150.1,88.1z"/>
		<path class="st0" d="M137.9,239.5c-3.3-3.3-4.9-7.3-4.9-12.1c0-4.8,1.6-8.8,4.9-12.1c3.3-3.3,7.3-4.9,12.1-4.9
			c4.8,0,8.8,1.6,12.1,4.9c3.3,3.3,4.9,7.3,4.9,12.1c0,4.8-1.6,8.8-4.9,12.1c-3.3,3.3-7.3,4.9-12.1,4.9
			C145.3,244.4,141.2,242.8,137.9,239.5z"/>
	</g>
</g>
</svg>
